<svg xmlns="http://www.w3.org/2000/svg" viewBox="0 0 128 66.3"><defs><style>.a{fill:#1eb8fa;}</style></defs><title>logo</title><path class="a" d="M128,36.1c0,8.4-7.2,16-18.9,21.5S81.6,66.3,64,66.3,30.5,63,18.9,57.6,0,44.5,0,36.1s7.2-16,18.9-21.5S46.4,5.9,64,5.9A126.4,126.4,0,0,1,92.3,9L92,10.3A125.1,125.1,0,0,0,64,7.2c-17.4,0-33.2,3.3-44.5,8.6S1.3,28.2,1.3,36.1s6.9,15,18.2,20.3S46.6,65,64,65s33.2-3.3,44.5-8.6S126.7,44,126.7,36.1s-6.9-15-18.2-20.3l-2.3-1,0.3-1.3,2.5,1.1C120.8,20.1,128,27.7,128,36.1ZM63.7,8.6A124.2,124.2,0,0,1,94,12.2l1.8-8.3a5,5,0,0,1,1.7-2.8,5.1,5.1,0,0,1,1.9-1l1.1-.2h0.8a3.2,3.2,0,0,1,1.9,1.1,3.3,3.3,0,0,1,.7,2.1,4,4,0,0,1-.1.9,0.7,0.7,0,1,1-1.3-.3,2.8,2.8,0,0,0,.1-0.6,2,2,0,0,0-.4-1.3,1.9,1.9,0,0,0-1.1-.7h-0.5l-1.1.2-1.1.6a3.7,3.7,0,0,0-1.3,2L96.6,6.7l2.9,0.8,0.7,0.2,3.1,1.1,0.5-2.4a5,5,0,0,1,1.7-2.8,4.9,4.9,0,0,1,3-1.1h0.8a3.2,3.2,0,0,1,1.9,1.1,3.3,3.3,0,0,1,.7,2.1,4.1,4.1,0,0,1-.1.9,0.7,0.7,0,1,1-1.3-.3,2.8,2.8,0,0,0,.1-0.6,2,2,0,0,0-.4-1.3,1.9,1.9,0,0,0-1.1-.7v0h-0.5a3.5,3.5,0,0,0-2.2.8,3.7,3.7,0,0,0-1.3,2l-1.8,8.4c13.4,5,21.9,12.6,21.9,21S115,53.5,99.5,58.5a118.9,118.9,0,0,1-35.7,5.1C29.8,63.6,2.4,51.3,2.4,36.1S29.8,8.6,63.7,8.6ZM30.6,38.9q0-4.3-4.8-4.3l-2.4.2a6,6,0,0,0-1.8.7V35.3a5.9,5.9,0,0,1,.7-1.3,5.3,5.3,0,0,1,.9-1,4.9,4.9,0,0,1,2.4-1c0.7-.1.8,0.1,2.9,0h0.5q2.8-.1,3.8-1.4a11.8,11.8,0,0,0,1-1.8,6.1,6.1,0,0,0,.7-1.9,0.3,0.3,0,0,0-.3-0.3H34.1q-0.5.7-5.4,0.7H27.4a8.5,8.5,0,0,0-3.9,1.5,12,12,0,0,0-3.2,3.5c-3.6,5.1-6.1,13.3.3,14.4h0.7l2.2-.2a9.6,9.6,0,0,0,4.3-2A7.3,7.3,0,0,0,30.6,38.9ZM95.9,9.6l3.5,1h0.1l3.1,1.1,0.3-1.6L99.8,9H99.5L96.3,8Zm-0.6,2.9,4.2,1.2,2.6,0.9,0.3-1.6L99.5,12H99.1l-3.5-1Zm-7,20.8a0.1,0.1,0,0,0,.2.2h0.2l0.4-.3c1.9-1,6.4,1,7.9-1L97.6,31a3.5,3.5,0,0,0,.4-1.1,0.1,0.1,0,0,0-.2-0.2H97.6c-1.5,1.8-6.3-.6-8.3,1.3l-0.3.4-0.3.7A3.5,3.5,0,0,0,88.3,33.3ZM77.7,20.7a0.1,0.1,0,0,0,.1.2H78l0.4-.3c1.7-.9,5.9.9,7.4-0.9l0.6-1a3.3,3.3,0,0,0,.4-1,0.1,0.1,0,0,0-.1-0.2H86.4c-1.4,1.7-5.9-.5-7.8,1.2l-0.3.4-0.3.7A3.2,3.2,0,0,0,77.7,20.7ZM74.2,31a2,2,0,0,0,2.3,2.3l1.3-.2A10.1,10.1,0,0,0,81.3,31a2.7,2.7,0,0,0,.7,1.8,2.3,2.3,0,0,0,1.6.5,5,5,0,0,0,3.2-1.2,4.2,4.2,0,0,0,1.1-2.5l-0.9.6a1.9,1.9,0,0,1-.9.2H85.8a0.5,0.5,0,0,1-.1-0.5L87.3,25a4.5,4.5,0,0,0,.2-1.3q0-1.3-1.8-1.3a7.5,7.5,0,0,0-3,.7,3.5,3.5,0,0,1-.1,1.8,21.4,21.4,0,0,1-.9,2.7A13,13,0,0,1,80.4,30a1.9,1.9,0,0,1-1.1,1c-0.4,0-.5-0.3-0.3-1L79.9,27a19.6,19.6,0,0,0,.7-2.3,4,4,0,0,0,.1-0.8,1.5,1.5,0,0,0-1.7-1.6H77.8a9.5,9.5,0,0,0-2.3.8,2.2,2.2,0,0,1,.3,1.1,4.6,4.6,0,0,1-.2,1.1l-1.3,4A6.9,6.9,0,0,0,74.2,31Zm-0.1,6.6a8.2,8.2,0,0,0-2.2,3.7l-0.9.8-0.2.2A12.3,12.3,0,0,1,68.7,44a5.9,5.9,0,0,1-2.1.8H65.8q-1.5,0-1.5-1.9a10.1,10.1,0,0,1,.8-3.7,4.1,4.1,0,0,1,1.6-2.3h0.5q0.5,0,.5,1.2c0,0.1,0,.4-0.1.9a3.6,3.6,0,0,0-.1.8q0,0.2.5,0.2a6.1,6.1,0,0,0,2.5-.6l0.5-.3a1.9,1.9,0,0,0,.9-1.6,2.1,2.1,0,0,0-.9-1.8,5.6,5.6,0,0,0-3.2-.7H66.7a9.1,9.1,0,0,0-4.9,2.2,7.5,7.5,0,0,0-2.6,4.2l-0.9.9A12.3,12.3,0,0,1,56.1,44a5.5,5.5,0,0,1-2.9.9q-1.5,0-1.5-1.9a10.1,10.1,0,0,1,.8-3.7q0.9-2.4,2-2.4t0.5,1.2a8.6,8.6,0,0,1-.1.9,3.7,3.7,0,0,0-.1.8c0,0.1.2,0.2,0.5,0.2a6.1,6.1,0,0,0,2.5-.6,2.1,2.1,0,0,0,1.4-1.9q0-2.5-4.1-2.5a9.1,9.1,0,0,0-6.1,2.3,7.4,7.4,0,0,0-2.7,4.6A16.3,16.3,0,0,1,44.3,44l-0.7.3c-0.2,0-.3-0.2-0.3-0.6a3.8,3.8,0,0,1,.1-0.9,42.1,42.1,0,0,1,1.2-4.1,8,8,0,0,1,1.5-3,4.6,4.6,0,0,0-2.8-.8,2.4,2.4,0,0,0-1.8.6,3.6,3.6,0,0,0-2.5-.6,7.3,7.3,0,0,0-2.5.4,9,9,0,0,0-3.4,2.2,8.2,8.2,0,0,0-2.6,5.9q0,3.6,3.2,3.6a5.8,5.8,0,0,0,2.8-.7A8.7,8.7,0,0,0,38.5,45a2.9,2.9,0,0,0,3,2.1,6.8,6.8,0,0,0,5.1-2.7,3.4,3.4,0,0,0,1.5,1.8,7.2,7.2,0,0,0,3.8.9,10.1,10.1,0,0,0,3.7-.7,8.4,8.4,0,0,0,3.1-2l0.4-.5a3.4,3.4,0,0,0,1.7,2.4,7.2,7.2,0,0,0,3.7.9l2.2-.3,1.4-.4A8.5,8.5,0,0,0,71,44.6l0.2-.2,0.5-.7A3.6,3.6,0,0,0,73,45.9a6.2,6.2,0,0,0,4.1,1.2h1.5a11,11,0,0,0,2.5-.7A7.8,7.8,0,0,0,84,44.5h0q0,2.5,2.6,2.5t5.3-2.6a3,3,0,0,0,.7,2,2.6,2.6,0,0,0,1.8.6,6.4,6.4,0,0,0,3.5-1.3A12.3,12.3,0,0,0,100,44c0,0.2,0,.4,0,0.5q0,2.5,2.6,2.5a3,3,0,0,0,3.1-2.6q-0.7,0-.3-1.2l0.4-1.4a9.6,9.6,0,0,0,2.6,0c-0.4,1.9-.5,3.7.4,4.6a2.8,2.8,0,0,0,1.8.6,4.9,4.9,0,0,0,3.4-1.3c1.7-1.4,2.1-3.7,1.9-3.8a1.3,1.3,0,0,0-.7.5l-1.1,1a1.2,1.2,0,0,1-.8.4q-0.5,0-.3-0.6,1-3.3,1.8-5.5a5,5,0,0,0,.3-1.4q0-1.4-2-1.4a8.3,8.3,0,0,0-3.4.8,3.9,3.9,0,0,1-.1,2l-0.7,2.2a8.4,8.4,0,0,1-2.4.1,21.4,21.4,0,0,0,.7-2.4,4.6,4.6,0,0,0,.1-0.8,1.6,1.6,0,0,0-1.9-1.8,9.2,9.2,0,0,0-3.8,1,2.5,2.5,0,0,1,.3,1.3,4.1,4.1,0,0,1-.2,1.2,9.9,9.9,0,0,1-1.4,2.8l-2.3,2.4a1.2,1.2,0,0,1-.8.4q-0.5,0-.3-0.6,1-3.3,1.8-5.4a4.9,4.9,0,0,0,.3-1.4q0-1.4-2-1.4a8.4,8.4,0,0,0-3.4.8,3.9,3.9,0,0,1-.1,2,24.1,24.1,0,0,1-1,3,14.5,14.5,0,0,1-1.5,2.7,2.2,2.2,0,0,1-1.2,1.1q-0.7,0-.3-1.2l1-3.2a22.5,22.5,0,0,0,.8-2.6,4.7,4.7,0,0,0,.1-0.8A1.6,1.6,0,0,0,89.2,35a9.2,9.2,0,0,0-3.8,1,2.5,2.5,0,0,1,.3,1.3,4.1,4.1,0,0,1-.2,1.2,9.9,9.9,0,0,1-1.3,3.1,8.3,8.3,0,0,1-3,2.6,5.7,5.7,0,0,1-2.7.9H78.2a1.6,1.6,0,0,1-1.4-1.8,3.7,3.7,0,0,1,.1-0.9h1.7A8.8,8.8,0,0,0,81.9,41a4.3,4.3,0,0,0,2.5-3.7q0-2.3-4.3-2.3H78.6A8.3,8.3,0,0,0,74.1,37.7ZM64,24.3a7.1,7.1,0,0,0-1.8,2,15.8,15.8,0,0,1-1.8,2.1,3.5,3.5,0,0,1-1.9,1H58.3a0.6,0.6,0,0,1,0-.5c0.8-2.2,2.3-6.5,2.9-7.9a5.1,5.1,0,0,0,.4-1.4q0.1-1.4-1.9-1.4a8.6,8.6,0,0,0-3.4.8,18.3,18.3,0,0,1-.4,2.3c-1.3,5.6-4,8.9-4.8,8.9H50.8a1,1,0,0,1,.1-1l1.3-3.2c0.5-1.3,1.6-5.1,1.7-5.6a4.8,4.8,0,0,0,.1-0.8q0.1-1.7-1.8-1.7a8.3,8.3,0,0,0-3.6.8,6.6,6.6,0,0,1,.2,1.3,6.3,6.3,0,0,1-1,4c-1.8,3.2-4.9,7-6.1,6.4a1.3,1.3,0,0,1-.4-1.1c-0.1-1.4,1-2.9,2.1-3.7a1,1,0,0,0,.5-0.5c0-.7-3.3-1.7-5-0.3l-0.5.5C37,26.9,36.6,30,38,31.5a3.2,3.2,0,0,0,1.6.8c3.1,0.8,6.6-3.3,7-3.7s-1,2.3,0,3.4a2,2,0,0,0,1.3.6c2.5,0.3,4.4-1.6,5.3-2.3a2.3,2.3,0,0,0,.6,1.7,2.5,2.5,0,0,0,1.7.6,7,7,0,0,0,3.9-1.3,11.8,11.8,0,0,0,1.9-1.5,4.2,4.2,0,0,0,.4,1.7q0.9,1.8,3.9,1.8l1.9-.2a8.4,8.4,0,0,0,3.7-1.8,6.4,6.4,0,0,0,2.5-5.2q0-3.8-4.2-3.8l-2.1.2A8.7,8.7,0,0,0,64,24.3ZM24.8,36.4q-0.6,0-1.4,1.7l-0.7,1.6a13.2,13.2,0,0,0-1.3,4.6c0,0.6.2,0.9,0.6,0.9s0.9-.5,1.4-1.5l0.8-1.7a15,15,0,0,0,1.2-4.6Q25.4,36.4,24.8,36.4Zm14.8,0.3q-1.2,0-2.5,3.1l-0.5,1.3a9.2,9.2,0,0,0-.7,3q0,0.6.3,0.6h0.4a9,9,0,0,0,2-3.3,13.5,13.5,0,0,0,1.5-4.2C40.1,36.9,40,36.8,39.6,36.8ZM78.7,40a3.8,3.8,0,0,0,1.1-1.8,2.5,2.5,0,0,0,.1-0.8c0-.6-0.2-0.8-0.5-0.8a1.2,1.2,0,0,0-.9.6,10.4,10.4,0,0,0-1.4,3.7,3.3,3.3,0,0,0,1.4-.7h0.1ZM66.4,31.7q0.5,0,1.2-1.3l0.7-1.5a13.2,13.2,0,0,0,1.1-4q0-.8-0.5-0.8t-1.2,1.5L67,26.9a11.5,11.5,0,0,0-1.1,4C65.9,31.4,66.1,31.7,66.4,31.7Z"/></svg>