<?xml version="1.0" encoding="UTF-8" standalone="no"?>
<svg width="39px" height="39px" viewBox="0 0 39 39" version="1.1" xmlns="http://www.w3.org/2000/svg" xmlns:xlink="http://www.w3.org/1999/xlink" xmlns:sketch="http://www.bohemiancoding.com/sketch/ns">
    <!-- Generator: Sketch 3.0 (7574) - http://www.bohemiancoding.com/sketch -->
    <title>AUTO icon + P</title>
    <description>Created with Sketch.</description>
    <defs/>
    <g id="Page-1" stroke="none" stroke-width="1" fill="none" fill-rule="evenodd" sketch:type="MSPage">
        <g id="Step-2" sketch:type="MSArtboardGroup" transform="translate(-84.000000, -495.000000)" fill="#4A4A4A">
            <g id="AUTO-icon-+-P" sketch:type="MSLayerGroup" transform="translate(84.000000, 494.000000)">
                <path d="M13,9.07139377 L13,3.99550699 C13,2.34246828 14.3431458,1 16,1 C17.6534829,1 19,2.34113416 19,3.99550699 L19,9 L31.9972445,9 C35.8734412,9 39,12.1340068 39,16 C39,19.8581267 35.8647596,23 31.9972445,23 L19,23 L19,37.004493 C19,38.6575317 17.6568542,40 16,40 C14.3465171,40 13,38.6588658 13,37.004493 L13,22.9290457 C9.60127462,22.443619 7,19.5263133 7,16 C7,12.4815202 9.60752204,9.55873535 13,9.07139377 Z" id="AUTO-icon" sketch:type="MSShapeGroup"/>
                <text id="P" sketch:type="MSTextLayer" font-family="Clear Sans" font-size="7" font-weight="normal">
                    <tspan x="0" y="8">P</tspan>
                    <tspan x="0" y="18">R</tspan>
                    <tspan x="0" y="28">N</tspan>
                    <tspan x="0" y="38">D</tspan>
                </text>
            </g>
        </g>
    </g>
</svg>